<?xml version="1.0" encoding="UTF-8"?>
<svg id="_Слой_2" data-name="Слой 2" xmlns="http://www.w3.org/2000/svg" viewBox="0 0 369.82 249.69">
  <defs>
    <style>
      .cls-1 {
        fill: #c2c1c2;
        stroke-width: 0px;
      }
    </style>
  </defs>
  <g id="_Режим_изоляции" data-name="Режим изоляции">
    <polygon class="cls-1" points="134.96 0 0 178.51 0 171.31 129.52 0 134.96 0"/>
    <polygon class="cls-1" points="369.82 0 0 249.69 0 244.45 220.78 95.38 362.05 0 369.82 0"/>
    <polygon class="cls-1" points="169.55 219.89 0 103.39 0 98.14 172 216.33 169.55 219.89"/>
    <path class="cls-1" d="M212.75,248.26c.69-.94-2.65-4.35-2.96-4.63-2.01-1.82-4.28-3.37-6.45-4.98-.05-.04-.13-.55-.2-.67-.56-.9-.19-3.85-.18-4.64.54.56,1.85,1.66,2.63,1.92l1.09-1.49c-.23-.65-3.1-2.43-3.7-2.39.06-5,.14-9.99.18-14.99,0-.13.01-.52,0-.7-.01-.13-.15-.3-.33-.46-.08-.07-.17-.14-.26-.2-.18-.13-.36-.24-.45-.29-.31-.16-.35.25-.4.43-1.13,4.14-2.26,8.29-3.39,12.43-.92,1.77-1.84,3.54-2.75,5.3-2.44-1.81-5.07-3.8-7.62-5.31l-2.21-1.18h0s-.25-.45-.34-.6l.05-7.72c-.17-.26-1.06-.91-1.36-.91l-3.44,7.54-6.17,5.54c.09.29.98.94,1.28,1.02l7.35-2.36c.17.04.68.14.68.14l1.79,1.76c2.2,1.98,4.89,3.9,7.34,5.68-1.41,1.4-2.82,2.81-4.23,4.21-3.62,2.32-7.23,4.63-10.85,6.95-.16.1-.54.26-.29.51.07.08.23.21.41.35.09.06.18.13.27.18.2.12.4.2.53.17.17-.04.54-.17.67-.21,4.76-1.53,9.5-3.11,14.25-4.66.14.59,2.71,2.79,3.39,2.82l1.09-1.49c-.48-.67-1.92-1.59-2.62-1.94.75-.24,3.45-1.48,4.48-1.21.13.03.65-.05.7,0,2.19,1.59,4.35,3.29,6.69,4.67.36.21,4.61,2.38,5.3,1.44"/>
  </g>
</svg>