<?xml version="1.0" encoding="UTF-8"?>
<svg id="_Слой_2" data-name="Слой 2" xmlns="http://www.w3.org/2000/svg" viewBox="0 0 9.55 9.55">
  <defs>
    <style>
      .cls-1 {
        fill: #fff;
        stroke-width: 0px;
      }
    </style>
  </defs>
  <g id="_Слой_1-2" data-name="Слой 1">
    <g>
      <path class="cls-1" d="M1.63,7.22c.58.71,1.25,1.16,2.07,1.38,2.53.69,4.97-1.14,5.04-3.76,0-.04,0-.07,0-.11.02-.25.19-.41.41-.4.23,0,.38.17.38.43-.01,1.35-.49,2.52-1.47,3.45-2,1.9-5.04,1.77-6.89-.28-.04-.04-.08-.09-.15-.17-.05.37-.1.71-.15,1.05-.01.09-.02.18-.04.26-.05.21-.21.32-.42.3-.2-.02-.36-.18-.34-.39.03-.4.09-.79.14-1.19.04-.34.09-.67.14-1.01.06-.4.2-.5.6-.44.68.09,1.36.18,2.04.27.3.04.47.2.44.44-.03.26-.24.38-.54.34-.4-.06-.81-.11-1.27-.17Z"/>
      <path class="cls-1" d="M8.51,1.73c.05-.37.1-.75.15-1.12,0-.07.02-.13.04-.2.06-.19.25-.31.43-.28.19.03.35.19.33.38-.03.35-.08.69-.13,1.03-.06.42-.11.84-.17,1.25-.05.31-.21.43-.53.39-.59-.08-1.17-.16-1.76-.25-.14-.02-.28-.04-.42-.06-.24-.04-.4-.23-.37-.44.03-.23.22-.37.47-.34.32.04.64.09.97.13.1.01.2.02.35.04-.46-.57-.99-.95-1.62-1.2C3.66.05.87,1.9.79,4.7c0,.35-.15.52-.41.52C.14,5.21,0,5.05,0,4.77c0-1.08.33-2.06.99-2.9,1.89-2.4,5.32-2.5,7.38-.23.03.04.05.09.08.13.02-.01.04-.03.06-.04Z"/>
    </g>
  </g>
</svg>