<svg width="51" height="50" viewBox="0 0 51 50" fill="none" xmlns="http://www.w3.org/2000/svg">
<g clip-path="url(#clip0_27_68)">
<g clip-path="url(#clip1_27_68)">
<g clip-path="url(#clip2_27_68)">
<path d="M23.5317 6.31852L8.09589 40.6204C6.91274 43.2496 6.32116 44.5642 6.57055 45.3352C6.78648 46.0027 7.32116 46.5186 7.99601 46.7104C8.77541 46.932 10.068 46.2937 12.6531 45.0171L24.2879 39.2715C24.916 38.9614 25.23 38.8063 25.5591 38.7452C25.8505 38.6912 26.1495 38.6912 26.4409 38.7452C26.77 38.8063 27.084 38.9614 27.7121 39.2715L39.3469 45.0171C41.932 46.2937 43.2246 46.932 44.004 46.7104C44.6788 46.5186 45.2135 46.0027 45.4295 45.3352C45.6788 44.5642 45.0873 43.2496 43.9041 40.6204L28.4683 6.31852C27.6852 4.57838 27.2937 3.70831 26.7498 3.43939C26.2772 3.20575 25.7228 3.20575 25.2502 3.43939C24.7063 3.70831 24.3148 4.57838 23.5317 6.31852Z" stroke="#03355a" stroke-width="2" stroke-linecap="round" stroke-linejoin="round"/>
</g>
</g>
</g>
<defs>
<clipPath id="clip0_27_68">
<rect width="51" height="50" fill="white"/>
</clipPath>
<clipPath id="clip1_27_68">
<rect width="51" height="50" fill="white"/>
</clipPath>
<clipPath id="clip2_27_68">
<rect width="51" height="50" fill="white"/>
</clipPath>
</defs>
</svg>
