<svg width="58" height="58" viewBox="0 0 58 58" fill="none" xmlns="http://www.w3.org/2000/svg">
<path d="M14.7224 50.2232L15.1763 49.3322L14.7224 50.2232ZM12.6101 48.111L13.5011 47.657L12.6101 48.111ZM45.3898 48.111L44.4988 47.657L45.3898 48.111ZM43.2776 50.2232L42.8236 49.3322L43.2776 50.2232ZM43.2776 7.7768L42.8236 8.66781L43.2776 7.7768ZM45.3898 9.88905L44.4988 10.343L45.3898 9.88905ZM14.7224 7.7768L15.1763 8.66781L14.7224 7.7768ZM12.6101 9.88905L13.5011 10.343L12.6101 9.88905ZM32.8333 26.5833C32.8333 28.7004 31.1171 30.4167 29 30.4167V32.4167C32.2216 32.4167 34.8333 29.805 34.8333 26.5833H32.8333ZM29 30.4167C26.8829 30.4167 25.1666 28.7004 25.1666 26.5833H23.1666C23.1666 29.805 25.7783 32.4167 29 32.4167V30.4167ZM25.1666 26.5833C25.1666 24.4662 26.8829 22.75 29 22.75V20.75C25.7783 20.75 23.1666 23.3617 23.1666 26.5833H25.1666ZM29 22.75C31.1171 22.75 32.8333 24.4662 32.8333 26.5833H34.8333C34.8333 23.3617 32.2216 20.75 29 20.75V22.75ZM19.8166 8.25H38.1833V6.25H19.8166V8.25ZM44.9166 14.9833V43.0167H46.9166V14.9833H44.9166ZM38.1833 49.75H19.8166V51.75H38.1833V49.75ZM13.0833 43.0167V14.9833H11.0833V43.0167H13.0833ZM19.8166 49.75C18.4467 49.75 17.4794 49.7492 16.7236 49.6875C15.9794 49.6267 15.5288 49.5118 15.1763 49.3322L14.2684 51.1142C14.9498 51.4614 15.6929 51.6099 16.5607 51.6808C17.4168 51.7508 18.4797 51.75 19.8166 51.75V49.75ZM11.0833 43.0167C11.0833 44.3536 11.0825 45.4165 11.1525 46.2726C11.2234 47.1404 11.3719 47.8835 11.7191 48.5649L13.5011 47.657C13.3215 47.3045 13.2066 46.8539 13.1458 46.1098C13.0841 45.354 13.0833 44.3866 13.0833 43.0167H11.0833ZM15.1763 49.3322C14.4551 48.9647 13.8686 48.3783 13.5011 47.657L11.7191 48.5649C12.2784 49.6626 13.1708 50.5549 14.2684 51.1142L15.1763 49.3322ZM44.9166 43.0167C44.9166 44.3866 44.9159 45.354 44.8541 46.1098C44.7933 46.8539 44.6784 47.3045 44.4988 47.657L46.2809 48.5649C46.6281 47.8835 46.7766 47.1404 46.8475 46.2726C46.9174 45.4165 46.9166 44.3536 46.9166 43.0167H44.9166ZM38.1833 51.75C39.5203 51.75 40.5831 51.7508 41.4393 51.6808C42.3071 51.6099 43.0502 51.4614 43.7316 51.1142L42.8236 49.3322C42.4711 49.5118 42.0205 49.6267 41.2764 49.6875C40.5206 49.7492 39.5533 49.75 38.1833 49.75V51.75ZM44.4988 47.657C44.1313 48.3783 43.5449 48.9647 42.8236 49.3322L43.7316 51.1142C44.8292 50.5549 45.7216 49.6626 46.2809 48.5649L44.4988 47.657ZM38.1833 8.25C39.5533 8.25 40.5206 8.25078 41.2764 8.31253C42.0205 8.37333 42.4711 8.48821 42.8236 8.66781L43.7316 6.8858C43.0502 6.53859 42.3071 6.39007 41.4393 6.31917C40.5831 6.24922 39.5203 6.25 38.1833 6.25V8.25ZM46.9166 14.9833C46.9166 13.6464 46.9174 12.5835 46.8475 11.7274C46.7766 10.8596 46.6281 10.1165 46.2809 9.43506L44.4988 10.343C44.6784 10.6955 44.7933 11.1461 44.8541 11.8902C44.9159 12.646 44.9166 13.6134 44.9166 14.9833H46.9166ZM42.8236 8.66781C43.5449 9.03532 44.1313 9.62175 44.4988 10.343L46.2809 9.43506C45.7216 8.33744 44.8292 7.44506 43.7316 6.8858L42.8236 8.66781ZM19.8166 6.25C18.4797 6.25 17.4168 6.24922 16.5607 6.31917C15.6929 6.39007 14.9498 6.53859 14.2684 6.8858L15.1763 8.66781C15.5288 8.48821 15.9794 8.37333 16.7236 8.31253C17.4794 8.25078 18.4467 8.25 19.8166 8.25V6.25ZM13.0833 14.9833C13.0833 13.6134 13.0841 12.646 13.1458 11.8902C13.2066 11.1461 13.3215 10.6955 13.5011 10.343L11.7191 9.43506C11.3719 10.1165 11.2234 10.8596 11.1525 11.7274C11.0825 12.5835 11.0833 13.6464 11.0833 14.9833H13.0833ZM14.2684 6.8858C13.1708 7.44506 12.2784 8.33744 11.7191 9.43506L13.5011 10.343C13.8686 9.62175 14.4551 9.03532 15.1763 8.66781L14.2684 6.8858ZM17.9166 50.75C17.9166 44.6288 22.8788 39.6667 29 39.6667V37.6667C21.7743 37.6667 15.9166 43.5243 15.9166 50.75H17.9166ZM29 39.6667C35.1211 39.6667 40.0833 44.6288 40.0833 50.75H42.0833C42.0833 43.5243 36.2257 37.6667 29 37.6667V39.6667Z" fill="#03355a"/>
</svg>
