<svg width="58" height="57" viewBox="0 0 58 57" fill="none" xmlns="http://www.w3.org/2000/svg">
<path d="M26.5833 49.875H9.66667C9.66667 41.4996 15.9686 34.5708 24.1667 33.4184M48.0255 36.109C47.8607 36.1187 47.6947 36.1237 47.5278 36.1237C45.0519 36.1237 42.7935 35.037 41.0833 33.25C39.3731 35.037 37.1147 36.1236 34.6389 36.1236C34.472 36.1236 34.306 36.1186 34.1412 36.1089C33.9402 37.0151 33.8333 37.9655 33.8333 38.9451C33.8333 44.2037 36.914 48.6222 41.0833 49.875C45.2526 48.6222 48.3333 44.2037 48.3333 38.9451C48.3333 37.9656 48.2264 37.0152 48.0255 36.109ZM36.25 16.625C36.25 21.8717 31.9221 26.125 26.5833 26.125C21.2446 26.125 16.9167 21.8717 16.9167 16.625C16.9167 11.3783 21.2446 7.125 26.5833 7.125C31.9221 7.125 36.25 11.3783 36.25 16.625Z" stroke="#03355a" stroke-width="2" stroke-linecap="round" stroke-linejoin="round"/>
</svg>
