<?xml version="1.0" encoding="UTF-8"?>
<svg id="_Слой_2" data-name="Слой 2" xmlns="http://www.w3.org/2000/svg" viewBox="0 0 482.5 341.34">
  <defs>
    <style>
      .cls-1 {
        fill: #fff;
      }
    </style>
  </defs>
  <g id="_Слой_1-2" data-name="Слой 1">
    <path class="cls-1" d="M479.02,90.47l-307.4,179.16c-71.18,36.47-114.73-46.2-163-82.36-11.71-12.42-11.82-30.92,1.63-42.08,4.5-3.73,35.94-18.1,41.66-19.21,2.44-.47,4.88-.56,7.27.25l50.46,21.46,35.88-19.94c.69-.94-2.65-3.72-3.51-4.52-11.2-10.48-46.69-37.83-51.41-49.4-6.39-15.69.42-29.67,14.77-37.11,5.35-2.77,30.61-14.07,35.19-14.73,2.17-.31,4.36-.19,6.47.4l114.24,38.08L354.62,6.48c61.94-25.18,92.81,28.32,125.94,68.65,3.19,5.13,2.3,10.8-1.54,15.34ZM378.35,25.23c-6.77.7-13.69,3.17-19.78,6.17-29.19,14.38-57.97,37.26-87.14,51.59-4.33,2.13-7.52,4.09-12.7,2.37l-116.72-38.05-27.95,12.05c-4.45,3.68,5.15,11.29,7.97,13.99,17.25,16.53,36.39,31.6,53.92,47.88,4.15,5.19,4.12,11.8.01,17.01-18.66,9.85-37.4,23.49-56.25,32.58-5.07,2.44-6.54,3.72-12.66,2.33l-51.55-22.25c-1.58-.14-27.36,11.01-29.22,12.32-5.91,4.15,4.99,12.12,8.39,15.44,20.03,19.52,43.33,42.33,64.39,60.37,15.94,13.66,34.5,19.36,54.9,11.95L450.95,78.85c1.22-1.19.09-1.67-.51-2.54-6.88-9.88-28.76-36.74-38.04-42.81-9.87-6.45-22.31-9.49-34.05-8.28Z"/>
    <path class="cls-1" d="M327.31,320.69c7.03,7.03,2.77,19.45-7.12,20.65H29.71c-14.07-2.57-14.07-21.44,0-24.01l292.99.49c1.38.95,3.49,1.75,4.61,2.87Z"/>
  </g>
</svg>