<svg width="77" height="77" viewBox="0 0 77 77" fill="none" xmlns="http://www.w3.org/2000/svg">
<path d="M38.5 9.625L38.9892 8.75285C38.6853 8.58238 38.3146 8.58238 38.0108 8.75285L38.5 9.625ZM42.984 12.1403L42.4948 13.0125C42.6406 13.0943 42.8045 13.1382 42.9716 13.1403L42.984 12.1403ZM48.125 12.204L48.9848 11.6933C48.8068 11.3938 48.4858 11.2084 48.1374 11.2041L48.125 12.204ZM50.7506 16.6244L49.8909 17.1351C49.9762 17.2788 50.0962 17.3988 50.2399 17.4841L50.7506 16.6244ZM55.171 19.25L56.1709 19.2376C56.1666 18.8892 55.9812 18.5682 55.6817 18.3902L55.171 19.25ZM55.2347 24.391L54.2347 24.4033C54.2368 24.5705 54.2807 24.7344 54.3625 24.8802L55.2347 24.391ZM57.75 28.875L58.6221 29.3642C58.7926 29.0604 58.7926 28.6896 58.6221 28.3858L57.75 28.875ZM55.2347 33.359L54.3625 32.8698C54.2807 33.0156 54.2368 33.1795 54.2347 33.3467L55.2347 33.359ZM55.171 38.5L55.6817 39.3598C55.9812 39.1818 56.1666 38.8608 56.1709 38.5124L55.171 38.5ZM50.7506 41.1256L50.2399 40.2659C50.0962 40.3512 49.9762 40.4712 49.8909 40.6149L50.7506 41.1256ZM48.125 45.546L48.1374 46.5459C48.4858 46.5416 48.8068 46.3562 48.9848 46.0567L48.125 45.546ZM42.984 45.6097L42.9716 44.6097C42.8045 44.6118 42.6406 44.6557 42.4948 44.7375L42.984 45.6097ZM38.5 48.125L38.0108 48.9972C38.3146 49.1676 38.6853 49.1676 38.9892 48.9972L38.5 48.125ZM34.016 45.6097L34.5052 44.7375C34.3594 44.6557 34.1955 44.6118 34.0283 44.6097L34.016 45.6097ZM28.875 45.546L28.0152 46.0567C28.1932 46.3562 28.5142 46.5416 28.8626 46.5459L28.875 45.546ZM26.2494 41.1256L27.1091 40.6149C27.0238 40.4712 26.9038 40.3512 26.7601 40.2659L26.2494 41.1256ZM21.829 38.5L20.8291 38.5124C20.8334 38.8608 21.0188 39.1818 21.3183 39.3598L21.829 38.5ZM21.7653 33.359L22.7653 33.3467C22.7632 33.1795 22.7193 33.0156 22.6375 32.8698L21.7653 33.359ZM19.25 28.875L18.3778 28.3858C18.2074 28.6896 18.2074 29.0604 18.3778 29.3642L19.25 28.875ZM21.7653 24.391L22.6375 24.8802C22.7193 24.7344 22.7632 24.5705 22.7653 24.4033L21.7653 24.391ZM21.829 19.25L21.3183 18.3902C21.0188 18.5682 20.8334 18.8892 20.8291 19.2376L21.829 19.25ZM26.2494 16.6244L26.7601 17.4841C26.9038 17.3988 27.0238 17.2788 27.1091 17.1351L26.2494 16.6244ZM28.875 12.204L28.8626 11.2041C28.5142 11.2084 28.1932 11.3938 28.0152 11.6933L28.875 12.204ZM34.016 12.1403L34.0283 13.1403C34.1955 13.1382 34.3594 13.0943 34.5052 13.0125L34.016 12.1403ZM12.8333 60.9584L11.9389 60.5112C11.7839 60.8212 11.8005 61.1894 11.9827 61.4842C12.1649 61.779 12.4868 61.9584 12.8333 61.9584V60.9584ZM20.8542 60.9584L21.6542 60.3584C21.4653 60.1066 21.1689 59.9584 20.8542 59.9584V60.9584ZM25.6667 67.3751L24.8667 67.9751C25.0746 68.2524 25.4113 68.4022 25.7565 68.3711C26.1016 68.3399 26.4061 68.1323 26.5611 67.8223L25.6667 67.3751ZM64.1667 60.9584V61.9584C64.5132 61.9584 64.8351 61.779 65.0173 61.4842C65.1995 61.1894 65.2161 60.8212 65.0611 60.5112L64.1667 60.9584ZM56.1458 60.9584V59.9584C55.8311 59.9584 55.5347 60.1066 55.3458 60.3584L56.1458 60.9584ZM51.3333 67.3751L50.4389 67.8223C50.5939 68.1323 50.8983 68.3399 51.2435 68.3711C51.5887 68.4022 51.9254 68.2524 52.1333 67.9751L51.3333 67.3751ZM60.2486 50.8862C60.0016 50.3922 59.4009 50.192 58.9069 50.439C58.413 50.686 58.2127 51.2867 58.4597 51.7806L60.2486 50.8862ZM47.4153 57.3029C47.1683 56.8089 46.5676 56.6087 46.0736 56.8557C45.5796 57.1027 45.3794 57.7033 45.6264 58.1973L47.4153 57.3029ZM31.3736 58.1973C31.6206 57.7033 31.4204 57.1027 30.9264 56.8557C30.4324 56.6087 29.8317 56.8089 29.5847 57.3029L31.3736 58.1973ZM18.5403 51.7806C18.7872 51.2867 18.587 50.686 18.093 50.439C17.5991 50.192 16.9984 50.3922 16.7514 50.8862L18.5403 51.7806ZM38.0108 10.4972L42.4948 13.0125L43.4733 11.2682L38.9892 8.75285L38.0108 10.4972ZM42.9716 13.1403L48.1126 13.2039L48.1374 11.2041L42.9964 11.1404L42.9716 13.1403ZM47.2652 12.7147L49.8909 17.1351L51.6104 16.1137L48.9848 11.6933L47.2652 12.7147ZM50.2399 17.4841L54.6603 20.1098L55.6817 18.3902L51.2613 15.7646L50.2399 17.4841ZM54.1711 19.2624L54.2347 24.4033L56.2346 24.3786L56.1709 19.2376L54.1711 19.2624ZM54.3625 24.8802L56.8778 29.3642L58.6221 28.3858L56.1068 23.9017L54.3625 24.8802ZM56.8778 28.3858L54.3625 32.8698L56.1068 33.8483L58.6221 29.3642L56.8778 28.3858ZM54.2347 33.3467L54.1711 38.4876L56.1709 38.5124L56.2346 33.3714L54.2347 33.3467ZM49.8909 40.6149L47.2652 45.0353L48.9848 46.0567L51.6104 41.6363L49.8909 40.6149ZM48.1126 44.5461L42.9716 44.6097L42.9964 46.6096L48.1374 46.5459L48.1126 44.5461ZM34.0283 44.6097L28.8874 44.5461L28.8626 46.5459L34.0036 46.6096L34.0283 44.6097ZM29.7348 45.0353L27.1091 40.6149L25.3896 41.6363L28.0152 46.0567L29.7348 45.0353ZM22.8289 38.4876L22.7653 33.3467L20.7654 33.3714L20.8291 38.5124L22.8289 38.4876ZM22.6375 32.8698L20.1221 28.3858L18.3778 29.3642L20.8932 33.8483L22.6375 32.8698ZM20.1221 29.3642L22.6375 24.8802L20.8932 23.9017L18.3778 28.3858L20.1221 29.3642ZM22.7653 24.4033L22.8289 19.2624L20.8291 19.2376L20.7654 24.3786L22.7653 24.4033ZM22.3397 20.1098L26.7601 17.4841L25.7387 15.7646L21.3183 18.3902L22.3397 20.1098ZM27.1091 17.1351L29.7348 12.7147L28.0152 11.6933L25.3896 16.1137L27.1091 17.1351ZM28.8874 13.2039L34.0283 13.1403L34.0036 11.1404L28.8626 11.2041L28.8874 13.2039ZM34.5052 13.0125L38.9892 10.4972L38.0108 8.75285L33.5267 11.2682L34.5052 13.0125ZM54.6603 37.6402L50.2399 40.2659L51.2613 41.9854L55.6817 39.3598L54.6603 37.6402ZM26.7601 40.2659L22.3397 37.6402L21.3183 39.3598L25.7387 41.9854L26.7601 40.2659ZM42.4948 44.7375L38.0108 47.2528L38.9892 48.9972L43.4733 46.4818L42.4948 44.7375ZM38.9892 47.2528L34.5052 44.7375L33.5267 46.4818L38.0108 48.9972L38.9892 47.2528ZM12.8333 61.9584H20.8542V59.9584H12.8333V61.9584ZM20.0542 61.5584L24.8667 67.9751L26.4667 66.7751L21.6542 60.3584L20.0542 61.5584ZM64.1667 59.9584H56.1458V61.9584H64.1667V59.9584ZM55.3458 60.3584L50.5333 66.7751L52.1333 67.9751L56.9458 61.5584L55.3458 60.3584ZM58.4597 51.7806L63.2722 61.4056L65.0611 60.5112L60.2486 50.8862L58.4597 51.7806ZM45.6264 58.1973L50.4389 67.8223L52.2278 66.9279L47.4153 57.3029L45.6264 58.1973ZM29.5847 57.3029L24.7722 66.9279L26.5611 67.8223L31.3736 58.1973L29.5847 57.3029ZM16.7514 50.8862L11.9389 60.5112L13.7278 61.4056L18.5403 51.7806L16.7514 50.8862ZM43.9167 28.875C43.9167 31.8665 41.4915 34.2917 38.5 34.2917V36.2917C42.5961 36.2917 45.9167 32.9711 45.9167 28.875H43.9167ZM38.5 34.2917C35.5085 34.2917 33.0833 31.8665 33.0833 28.875H31.0833C31.0833 32.9711 34.4039 36.2917 38.5 36.2917V34.2917ZM33.0833 28.875C33.0833 25.8835 35.5085 23.4583 38.5 23.4583V21.4583C34.4039 21.4583 31.0833 24.7789 31.0833 28.875H33.0833ZM38.5 23.4583C41.4915 23.4583 43.9167 25.8835 43.9167 28.875H45.9167C45.9167 24.7789 42.5961 21.4583 38.5 21.4583V23.4583Z" fill="#03355a"/>
</svg>
