<svg width="57" height="57" viewBox="0 0 57 57" fill="none" xmlns="http://www.w3.org/2000/svg">
<path d="M33.25 45.8036L37.525 49.875L47.5 40.375M39.1875 34.2042C38.4874 33.7998 37.7112 33.5107 36.8844 33.3622C36.7053 33.33 36.5153 33.3071 36.3 33.2907C35.7651 33.25 35.4976 33.2297 35.1408 33.2563C34.7698 33.284 34.5626 33.3206 34.2045 33.4216C33.8601 33.5188 33.2397 33.7998 31.9988 34.3619C30.2078 35.1733 28.2192 35.625 26.125 35.625C24.0308 35.625 22.0422 35.1733 20.2512 34.3619C19.0102 33.7998 18.3897 33.5187 18.0452 33.4215C17.6871 33.3205 17.4796 33.2839 17.1086 33.2562C16.7516 33.2297 16.4844 33.25 15.9499 33.2908C15.7313 33.3074 15.5384 33.3309 15.3558 33.364C12.4318 33.8933 10.1433 36.1818 9.61396 39.1058C9.5 39.7353 9.5 40.4901 9.5 41.9997V46.075C9.5 47.4051 9.5 48.0702 9.75886 48.5782C9.98656 49.0251 10.3499 49.3884 10.7968 49.6161C11.3048 49.875 11.9699 49.875 13.3 49.875H24.9375M35.625 16.625C35.625 21.8717 31.3717 26.125 26.125 26.125C20.8783 26.125 16.625 21.8717 16.625 16.625C16.625 11.3783 20.8783 7.125 26.125 7.125C31.3717 7.125 35.625 11.3783 35.625 16.625Z" stroke="#03355a" stroke-width="2" stroke-linecap="round" stroke-linejoin="round"/>
</svg>
