<?xml version="1.0" encoding="UTF-8"?>
<svg id="_Слой_2" data-name="Слой 2" xmlns="http://www.w3.org/2000/svg" viewBox="0 0 535.68 370.1">
  <defs>
    <style>
      .cls-1 {
        fill: #fff;
      }
    </style>
  </defs>
  <g id="_Слой_1-2" data-name="Слой 1">
    <path class="cls-1" d="M401.06,303.99L57.02,213.31C-19.1,188.77,8.56,99.51,0,39.81.5,22.75,13.51,9.59,30.91,11.22c5.82.54,38.22,12.62,43.04,15.88,2.06,1.39,3.85,3.06,4.96,5.32l20.51,50.85,39.47,11.27c1.16-.18.75-4.5.71-5.67-.51-15.33-6.27-59.76-1.42-71.28,6.58-15.61,21.28-20.68,36.69-15.79,5.75,1.82,31.6,11.69,35.3,14.47,1.75,1.32,3.21,2.95,4.29,4.86l53.85,107.71,104.16,27.81c61.6,25.99,45.6,85.66,40.51,137.59-1.37,5.89-6.01,9.27-11.93,9.76ZM376.01,186.67c-5.28-4.29-11.92-7.44-18.35-9.62-30.81-10.47-67.34-14.64-98.1-25.14-4.57-1.56-8.21-2.43-10.65-7.3l-55.62-109.44-28.28-11.24c-5.75-.55-4.34,11.63-4.26,15.53.51,23.89,3.39,48.07,4.27,71.98-.73,6.6-5.43,11.26-12.02,12.03-20.16-6.23-43.06-9.83-62.81-16.73-5.31-1.86-7.26-2-10.6-7.3l-20.72-52.18c-1.02-1.22-27.14-11.56-29.37-11.95-7.11-1.24-5.04,12.11-4.98,16.85.36,27.97.71,60.57,2.84,88.22,1.62,20.93,10.7,38.08,30.37,47.27l331.7,88.27c1.71.02,1.25-1.12,1.44-2.16,2.12-11.85,5.64-46.32,3.37-57.17-2.42-11.54-9.06-22.49-18.22-29.93Z"/>
    <path class="cls-1" d="M532.21,349.46c7.03,7.03,2.77,19.45-7.12,20.65H234.6c-14.07-2.57-14.07-21.44,0-24.01l292.99.49c1.38.95,3.49,1.75,4.61,2.87Z"/>
  </g>
</svg>