<?xml version="1.0" encoding="UTF-8"?>
<svg id="_Слой_2" data-name="Слой 2" xmlns="http://www.w3.org/2000/svg" viewBox="0 0 465.31 234.71">
  <defs>
    <style>
      .cls-1 {
        fill: #fff;
      }
    </style>
  </defs>
  <g id="_Слой_1-2" data-name="Слой 1">
    <path class="cls-1" d="M456.27,234.15l-355.79.56C20.61,230.5,24.46,137.14.88,81.64c-3.89-16.62,5.31-32.67,22.54-35.57,5.76-.97,40.17,2.4,45.68,4.31,2.35.82,4.5,1.97,6.16,3.87l32.86,43.9,41.04.77c1.08-.47-.43-4.55-.76-5.67-4.42-14.69-21.38-56.16-19.65-68.53C131.11,7.94,144.02-.73,160.17.05c6.02.29,33.54,3.2,37.83,4.94,2.03.82,3.86,2.03,5.4,3.59l79.67,90.3,107.81.17c66.2,9.33,66.04,71.1,74.44,122.61.18,6.04-3.44,10.5-9.03,12.49ZM401.98,127.18c-6.21-2.79-13.43-4.13-20.2-4.59-32.47-2.22-68.84,3.11-101.26.85-4.81-.34-8.56-.24-12.17-4.32L186.52,27.59l-30.22-3.61c-5.7.94-1.22,12.35-.13,16.11,6.62,22.96,15.6,45.6,22.59,68.48.98,6.57-2.36,12.28-8.53,14.71-21.09-.85-44.14,1.54-65-.07-5.61-.43-7.53-.07-12.12-4.34l-33.4-45.12c-1.29-.91-29.19-4.22-31.45-4.02-7.19.63-1.77,12.99-.49,17.56,7.52,26.94,16.21,58.36,25.36,84.54,6.93,19.82,20.11,34.07,41.47,37.9l343.24.28c1.65-.42.92-1.4.84-2.45-.99-12-6.42-46.22-11.4-56.12-5.3-10.54-14.52-19.41-25.29-24.26Z"/>
  </g>
</svg>