<svg width="57" height="57" viewBox="0 0 57 57" fill="none" xmlns="http://www.w3.org/2000/svg">
<path d="M20.1875 49.875H9.5C9.5 40.6933 16.9433 33.25 26.125 33.25C26.5243 33.25 26.9203 33.2641 27.3125 33.2918M35.625 16.625C35.625 21.8717 31.3717 26.125 26.125 26.125C20.8783 26.125 16.625 21.8717 16.625 16.625C16.625 11.3783 20.8783 7.125 26.125 7.125C31.3717 7.125 35.625 11.3783 35.625 16.625ZM29.9009 49.875L34.7102 48.9131C35.1295 48.8293 35.3392 48.7873 35.5347 48.7106C35.7083 48.6426 35.8732 48.5543 36.0261 48.4477C36.1983 48.3275 36.3495 48.1763 36.6519 47.8739L46.5259 38C47.8376 36.6883 47.8376 34.5617 46.5259 33.25C45.2142 31.9383 43.0876 31.9383 41.7759 33.25L31.9019 43.1239C31.5995 43.4263 31.4483 43.5775 31.3282 43.7498C31.2216 43.9027 31.1333 44.0676 31.0652 44.2412C30.9885 44.4367 30.9466 44.6464 30.8627 45.0657L29.9009 49.875Z" stroke="#03355a" stroke-width="2" stroke-linecap="round" stroke-linejoin="round"/>
</svg>
